<mxfile host="app.diagrams.net" modified="2024-02-09T06:43:29.464Z" agent="Mozilla/5.0 (Windows NT 10.0; Win64; x64) AppleWebKit/537.36 (KHTML, like Gecko) Chrome/121.0.0.0 Safari/537.36" etag="PfYVvq8eafAuV5UwCc8L" version="23.1.2" type="device">
  <diagram name="Puslapis-1" id="JLdtcncbSPNCJwcg56eu">
    <mxGraphModel dx="613" dy="897" grid="1" gridSize="10" guides="1" tooltips="1" connect="1" arrows="1" fold="1" page="1" pageScale="1" pageWidth="827" pageHeight="1169" background="#D6FFD1" math="0" shadow="0">
      <root>
        <mxCell id="0" />
        <mxCell id="1" parent="0" />
        <mxCell id="0eOkTopKULn8qGtKj34l-1" value="NAVBAR: MENU (HOME/LIST; ADD ITEM)" style="rounded=1;whiteSpace=wrap;html=1;" vertex="1" parent="1">
          <mxGeometry x="20" y="20" width="590" height="80" as="geometry" />
        </mxCell>
        <mxCell id="0eOkTopKULn8qGtKj34l-2" value="ITEM IMAGE (GALARY)" style="rounded=1;whiteSpace=wrap;html=1;" vertex="1" parent="1">
          <mxGeometry x="20" y="160" width="360" height="640" as="geometry" />
        </mxCell>
        <mxCell id="0eOkTopKULn8qGtKj34l-3" value="ITEM TITLE" style="rounded=1;whiteSpace=wrap;html=1;" vertex="1" parent="1">
          <mxGeometry x="400" y="160" width="210" height="60" as="geometry" />
        </mxCell>
        <mxCell id="0eOkTopKULn8qGtKj34l-4" value="ITEM DESCRIPTION" style="rounded=1;whiteSpace=wrap;html=1;fontStyle=0" vertex="1" parent="1">
          <mxGeometry x="400" y="260" width="210" height="420" as="geometry" />
        </mxCell>
        <mxCell id="0eOkTopKULn8qGtKj34l-5" value="ITEM PRICE" style="rounded=1;whiteSpace=wrap;html=1;" vertex="1" parent="1">
          <mxGeometry x="400" y="730" width="210" height="60" as="geometry" />
        </mxCell>
        <mxCell id="0eOkTopKULn8qGtKj34l-7" value="FOOTER: CREDENTIALS, CONTACTS, TERMS, SOCMEDIA LINKS ETC" style="rounded=1;whiteSpace=wrap;html=1;" vertex="1" parent="1">
          <mxGeometry x="20" y="870" width="600" height="40" as="geometry" />
        </mxCell>
        <mxCell id="0eOkTopKULn8qGtKj34l-8" value="BUY" style="rounded=1;whiteSpace=wrap;html=1;" vertex="1" parent="1">
          <mxGeometry x="400" y="810" width="210" height="30" as="geometry" />
        </mxCell>
        <mxCell id="0eOkTopKULn8qGtKj34l-9" value="ADD TO FAVOURITE" style="rounded=1;whiteSpace=wrap;html=1;" vertex="1" parent="1">
          <mxGeometry x="220" y="810" width="160" height="30" as="geometry" />
        </mxCell>
        <mxCell id="0eOkTopKULn8qGtKj34l-10" value="DELETE ITEM" style="rounded=1;whiteSpace=wrap;html=1;" vertex="1" parent="1">
          <mxGeometry x="20" y="810" width="170" height="30" as="geometry" />
        </mxCell>
        <mxCell id="0eOkTopKULn8qGtKj34l-13" value="" style="endArrow=classic;html=1;rounded=0;" edge="1" parent="1">
          <mxGeometry relative="1" as="geometry">
            <mxPoint x="20" y="584" as="sourcePoint" />
            <mxPoint x="380" y="584" as="targetPoint" />
          </mxGeometry>
        </mxCell>
        <mxCell id="0eOkTopKULn8qGtKj34l-14" value="Label" style="edgeLabel;resizable=0;html=1;align=center;verticalAlign=middle;" connectable="0" vertex="1" parent="0eOkTopKULn8qGtKj34l-13">
          <mxGeometry relative="1" as="geometry" />
        </mxCell>
        <mxCell id="0eOkTopKULn8qGtKj34l-15" value="Source" style="edgeLabel;resizable=0;html=1;align=left;verticalAlign=bottom;" connectable="0" vertex="1" parent="0eOkTopKULn8qGtKj34l-13">
          <mxGeometry x="-1" relative="1" as="geometry" />
        </mxCell>
        <mxCell id="0eOkTopKULn8qGtKj34l-16" value="Target" style="edgeLabel;resizable=0;html=1;align=right;verticalAlign=bottom;" connectable="0" vertex="1" parent="0eOkTopKULn8qGtKj34l-13">
          <mxGeometry x="1" relative="1" as="geometry" />
        </mxCell>
        <mxCell id="0eOkTopKULn8qGtKj34l-17" value="2 : 3" style="edgeLabel;html=1;align=center;verticalAlign=middle;resizable=0;points=[];" vertex="1" connectable="0" parent="0eOkTopKULn8qGtKj34l-13">
          <mxGeometry x="0.0136" y="-2" relative="1" as="geometry">
            <mxPoint as="offset" />
          </mxGeometry>
        </mxCell>
        <mxCell id="0eOkTopKULn8qGtKj34l-20" value="" style="endArrow=classic;html=1;rounded=0;entryX=0.991;entryY=0.788;entryDx=0;entryDy=0;entryPerimeter=0;" edge="1" parent="1" target="0eOkTopKULn8qGtKj34l-4">
          <mxGeometry relative="1" as="geometry">
            <mxPoint x="400" y="590" as="sourcePoint" />
            <mxPoint x="560" y="590" as="targetPoint" />
          </mxGeometry>
        </mxCell>
        <mxCell id="0eOkTopKULn8qGtKj34l-21" value="Label" style="edgeLabel;resizable=0;html=1;align=center;verticalAlign=middle;" connectable="0" vertex="1" parent="0eOkTopKULn8qGtKj34l-20">
          <mxGeometry relative="1" as="geometry" />
        </mxCell>
        <mxCell id="0eOkTopKULn8qGtKj34l-22" value="Source" style="edgeLabel;resizable=0;html=1;align=left;verticalAlign=bottom;" connectable="0" vertex="1" parent="0eOkTopKULn8qGtKj34l-20">
          <mxGeometry x="-1" relative="1" as="geometry" />
        </mxCell>
        <mxCell id="0eOkTopKULn8qGtKj34l-23" value="Target" style="edgeLabel;resizable=0;html=1;align=right;verticalAlign=bottom;" connectable="0" vertex="1" parent="0eOkTopKULn8qGtKj34l-20">
          <mxGeometry x="1" relative="1" as="geometry" />
        </mxCell>
        <mxCell id="0eOkTopKULn8qGtKj34l-26" value="1 : 3" style="edgeLabel;html=1;align=center;verticalAlign=middle;resizable=0;points=[];" vertex="1" connectable="0" parent="0eOkTopKULn8qGtKj34l-20">
          <mxGeometry x="-0.008" y="-1" relative="1" as="geometry">
            <mxPoint as="offset" />
          </mxGeometry>
        </mxCell>
      </root>
    </mxGraphModel>
  </diagram>
</mxfile>
